<?xml version="1.0" encoding="utf-8"?>
<!-- Generator: Adobe Illustrator 21.1.0, SVG Export Plug-In . SVG Version: 6.00 Build 0)  -->
<svg version="1.1" id="Layer_1" xmlns="http://www.w3.org/2000/svg" xmlns:xlink="http://www.w3.org/1999/xlink" x="0px" y="0px"
	 viewBox="0 0 218 80" style="enable-background:new 0 0 218 80;" xml:space="preserve">
<style type="text/css">
	.st0{clip-path:url(#SVGID_2_);}
	.st1{clip-path:url(#SVGID_4_);fill-rule:evenodd;clip-rule:evenodd;fill:#212056;}
	.st2{clip-path:url(#SVGID_4_);fill-rule:evenodd;clip-rule:evenodd;fill:#FFFFFF;}
	.st3{clip-path:url(#SVGID_4_);fill-rule:evenodd;clip-rule:evenodd;fill:#D52B27;}
	.st4{clip-path:url(#SVGID_4_);fill:#FFFFFF;}
	.st5{clip-path:url(#SVGID_6_);}
	.st6{clip-path:url(#SVGID_8_);fill-rule:evenodd;clip-rule:evenodd;fill:#212056;}
	.st7{clip-path:url(#SVGID_8_);fill-rule:evenodd;clip-rule:evenodd;fill:#FFFFFF;}
	.st8{clip-path:url(#SVGID_8_);fill-rule:evenodd;clip-rule:evenodd;fill:#D52B27;}
	.st9{clip-path:url(#SVGID_8_);fill:#FFFFFF;}
	.st10{fill:#212056;}
	.st11{clip-path:url(#SVGID_10_);}
	.st12{clip-path:url(#SVGID_12_);fill-rule:evenodd;clip-rule:evenodd;fill:#212056;}
	.st13{clip-path:url(#SVGID_12_);fill-rule:evenodd;clip-rule:evenodd;fill:#FFFFFF;}
	.st14{clip-path:url(#SVGID_12_);fill-rule:evenodd;clip-rule:evenodd;fill:#D52B27;}
	.st15{clip-path:url(#SVGID_12_);fill:#FFFFFF;}
	.st16{fill:#FFFFFF;}
</style>
<g>
	<g>
		<defs>
			<rect id="SVGID_9_" x="-8.1" y="-6" width="93.1" height="91.9"/>
		</defs>
		<clipPath id="SVGID_2_">
			<use xlink:href="#SVGID_9_"  style="overflow:visible;"/>
		</clipPath>
		<g class="st0">
			<defs>
				<rect id="SVGID_11_" x="-8.1" y="-6" width="93.1" height="91.9"/>
			</defs>
			<clipPath id="SVGID_4_">
				<use xlink:href="#SVGID_11_"  style="overflow:visible;"/>
			</clipPath>
			<path class="st1" d="M38.4,2.6c20.7,0,37.4,16.7,37.4,37.4S59.1,77.4,38.4,77.4S1,60.7,1,40S17.8,2.6,38.4,2.6"/>
			<path class="st2" d="M38.4,3.9c19.9,0,36.1,16.2,36.1,36.1S58.4,76.1,38.4,76.1S2.3,59.9,2.3,40S18.5,3.9,38.4,3.9"/>
			<path class="st1" d="M38.4,5c19.3,0,35,15.6,35,35c0,19.3-15.6,35-35,35c-19.3,0-35-15.6-35-35C3.5,20.7,19.1,5,38.4,5"/>
			<path class="st2" d="M38.4,18.4c12,0,21.6,9.7,21.6,21.6c0,12-9.7,21.6-21.6,21.6S16.8,52,16.8,40C16.8,28,26.5,18.4,38.4,18.4"
				/>
			<path class="st3" d="M38.4,19.3c11.5,0,20.7,9.3,20.7,20.7c0,11.5-9.3,20.7-20.7,20.7C27,60.7,17.7,51.5,17.7,40
				C17.7,28.5,27,19.3,38.4,19.3"/>
			<path class="st4" d="M13.8,34.6l0.9,0.2l-0.6,3.4l-0.9-0.2c0-0.2-0.1-0.5-0.1-0.8l-5-0.9l-0.5,0.7l-0.9-0.2l0.4-2.4l0.5-2.9
				l2,0.4l-0.2,1l-0.8,0.1l-0.3,1.7l1.8,0.3l0.4-2.2l1.1,0.2l-0.4,2.2l2,0.4C13.7,34.9,13.8,34.6,13.8,34.6"/>
			<path class="st4" d="M11.2,23.4c0.5-0.9,1.2-1.4,2.1-1.6c0.9-0.2,1.8,0.1,2.8,0.7c1,0.6,1.7,1.4,2,2.3c0.3,0.9,0.2,1.9-0.4,2.8
				c-0.5,0.9-1.2,1.4-2.1,1.6c-0.8,0.2-1.8-0.1-2.9-0.7c-1-0.6-1.7-1.4-2-2.3C10.5,25.2,10.6,24.3,11.2,23.4 M12.3,24.1
				c-0.3,0.5-0.3,0.9-0.1,1.4c0.2,0.4,0.7,0.9,1.5,1.4c0.7,0.4,1.4,0.7,1.8,0.7c0.5,0,0.9-0.2,1.1-0.7c0.3-0.5,0.3-0.9,0.1-1.4
				C16.5,25,16,24.5,15.3,24c-0.7-0.4-1.4-0.6-1.8-0.6C12.9,23.4,12.6,23.7,12.3,24.1"/>
			<path class="st4" d="M23.6,19.5l0.5,0.7l-2.6,1.9L21,21.4l0.5-0.7l-3-4l-0.8,0.2l-0.5-0.7l1.9-1.5l0.6-0.5c0.7-0.5,1.4-0.8,2-0.8
				c0.6,0,1.1,0.3,1.5,0.9c0.6,0.8,0.6,1.5,0.2,2.3c0.3,0.1,0.5,0.2,0.8,0.3l1.4,0.7l0.7-0.2l0.5,0.7l-1.6,1.2l-1.9-1
				c-0.4-0.2-0.7-0.4-0.8-0.4c-0.2,0-0.3,0-0.6,0.2l-0.3,0.2l1,1.4L23.6,19.5z M19.8,15.7l1.3,1.7l0.5-0.4c0.3-0.2,0.5-0.5,0.6-0.8
				c0.1-0.3,0-0.6-0.2-0.9c-0.2-0.3-0.4-0.4-0.7-0.4c-0.3,0-0.5,0-0.8,0.2L19.8,15.7z"/>
			<polygon class="st4" points="30,10.5 30.5,12.2 32.5,11.6 32.8,12.7 30.8,13.3 31.3,15.3 33.1,14.8 33.1,13.8 34.1,13.6 
				34.7,15.6 29.3,17.1 29.1,16.2 29.8,15.8 28.4,10.9 27.6,10.8 27.3,10 29.6,9.3 32.5,8.5 33.1,10.4 32.1,10.7 31.6,10 			"/>
			<polygon class="st4" points="40.6,14.6 40.5,15.5 37.5,15.2 37.6,14.3 38.4,14.1 38.9,9.1 38.2,8.7 38.2,7.8 40.8,8 43.1,13.2 
				43.5,9.6 42.8,9.2 42.8,8.3 45.9,8.6 45.8,9.5 44.9,9.7 44.3,15.9 42.5,15.7 40.2,10.7 39.8,14.3 			"/>
			<path class="st4" d="M49.8,15.6l-0.3,0.9c0.2,0.3,0.5,0.5,0.8,0.7c0.3,0.2,0.6,0.2,0.9,0.2c0.3,0,0.5-0.1,0.6-0.4
				c0.1-0.2,0.1-0.4,0-0.6c-0.1-0.2-0.2-0.4-0.4-0.6c-0.2-0.2-0.4-0.4-0.6-0.7c-0.2-0.3-0.4-0.5-0.6-0.8c-0.2-0.3-0.3-0.6-0.3-0.9
				c0-0.3,0.1-0.7,0.3-1.1c0.3-0.6,0.8-1,1.4-1.1c0.6-0.1,1.3,0,2,0.4c0.3,0.2,0.6,0.4,0.9,0.6c0.3,0.2,0.5,0.4,0.7,0.6l0.2,0.2
				l-0.9,1.7l-0.9-0.5l0.2-0.9c-0.2-0.2-0.5-0.4-0.7-0.6c-0.3-0.2-0.6-0.2-0.8-0.2c-0.2,0-0.4,0.1-0.5,0.3c-0.1,0.2-0.1,0.4,0,0.6
				c0.1,0.2,0.2,0.4,0.4,0.6c0.2,0.2,0.4,0.4,0.6,0.7c0.2,0.3,0.4,0.5,0.6,0.8c0.2,0.3,0.3,0.6,0.3,0.9c0,0.3-0.1,0.7-0.2,1
				c-0.4,0.7-0.9,1.1-1.6,1.2c-0.7,0.1-1.4,0-2.1-0.4c-0.3-0.2-0.6-0.4-0.9-0.6c-0.3-0.2-0.6-0.4-0.7-0.6l-0.2-0.2l1-1.8L49.8,15.6z
				"/>
			<polygon class="st4" points="57.6,23 56.9,23.7 54.6,21.4 55.3,20.7 56,21.1 59.6,17.5 59.2,16.8 59.8,16.1 62.2,18.4 61.5,19 
				60.7,18.7 57.2,22.3 			"/>
			<path class="st4" d="M66.3,26.9c-0.1-0.3-0.2-0.7-0.4-1.1c-0.6-1-1.6-1.1-3.1-0.3c-1.4,0.8-1.9,1.7-1.3,2.7
				c0.1,0.3,0.4,0.5,0.6,0.8c0.3,0.2,0.5,0.4,0.7,0.5l0.3,0.1l-0.6,1c0,0-0.1,0-0.2-0.1c-0.1,0-0.2-0.1-0.4-0.2
				c-0.2-0.1-0.4-0.2-0.6-0.4c-0.2-0.1-0.4-0.3-0.6-0.5c-0.2-0.2-0.4-0.5-0.6-0.8c-0.5-1-0.6-1.8-0.3-2.7c0.3-0.8,1-1.5,2-2.1
				c1.1-0.6,2.1-0.8,3-0.5c0.9,0.2,1.6,0.8,2.2,1.8c0.2,0.3,0.3,0.7,0.5,1.1c0.1,0.4,0.2,0.7,0.2,0.9l0,0.4L66,28.5l-0.5-0.9
				L66.3,26.9z"/>
			<path class="st4" d="M64.8,34.6L64,34.9c-0.1,0.3-0.1,0.7-0.1,1.1c0.1,0.4,0.2,0.6,0.4,0.9c0.2,0.2,0.4,0.3,0.7,0.3
				c0.2,0,0.3-0.1,0.5-0.3c0.1-0.2,0.2-0.4,0.2-0.7c0-0.3,0.1-0.6,0.2-0.9s0.2-0.6,0.3-0.9c0.1-0.3,0.3-0.5,0.6-0.8
				c0.3-0.2,0.6-0.4,1-0.4c0.7-0.1,1.3,0.1,1.7,0.5c0.5,0.4,0.7,1.1,0.9,1.8c0,0.3,0.1,0.7,0.1,1.1c0,0.4,0,0.7-0.1,0.9l-0.1,0.3
				L68.3,38l-0.1-1l0.9-0.4c0.1-0.3,0.1-0.6,0-0.9c-0.1-0.4-0.2-0.6-0.3-0.8c-0.2-0.2-0.4-0.2-0.6-0.2c-0.2,0-0.3,0.1-0.5,0.3
				c-0.1,0.2-0.2,0.4-0.2,0.7c0,0.3-0.1,0.6-0.2,0.9c-0.1,0.3-0.2,0.6-0.3,0.9c-0.1,0.3-0.3,0.5-0.6,0.7c-0.3,0.2-0.6,0.4-1,0.4
				c-0.8,0.1-1.4-0.1-1.9-0.5c-0.5-0.5-0.8-1.1-0.9-1.9c0-0.3-0.1-0.7-0.1-1.1c0-0.4,0-0.7,0.1-0.9l0.1-0.3l2-0.3L64.8,34.6z"/>
			<path class="st4" d="M15,57.4l-0.9,0.4l-0.7-1.1l3.3-2.1l0.5,0.4l0.6-0.4l-1.4-2.1l-0.6,0.4l0.1,0.7l-3.3,2.2l-0.5-0.4l-0.6,0.4
				l2.3,3.5l1.6-1L15,57.4z M21.4,58.8l-1-0.9L15.7,60l-0.6-0.3l-0.5,0.5l1.8,1.8l0.5-0.5l-0.3-0.6l0.6-0.3l1.3,1.3l-0.3,0.6
				l-0.6-0.3l-0.5,0.5l1.9,1.9l0.5-0.5l-0.3-0.5L21.4,58.8z M18.9,61.1L18,60.2l1.9-0.9L18.9,61.1z M25.7,62L25,61.6l-1.6-1L23,61.2
				l0.4,0.5l-2.1,3.4C21,65,20.8,65,20.7,64.9l-0.4,0.6l2.2,1.4c1.2,0.8,2.1,0.6,2.7-0.3c0.3-0.6,0.2-1.1-0.3-1.8
				c0.7,0.2,1.2,0,1.6-0.6c0.3-0.4,0.3-0.8,0.1-1.2C26.5,62.6,26.2,62.3,25.7,62 M24.1,65.9c-0.1,0.2-0.3,0.3-0.5,0.3
				c-0.2,0-0.4,0-0.7-0.2l-0.6-0.4l0.9-1.4l0.4,0.3c0.3,0.2,0.5,0.4,0.6,0.6C24.3,65.4,24.3,65.6,24.1,65.9 M25.3,63.7
				c-0.3,0.4-0.7,0.5-1.2,0.2l-0.4-0.3l0.7-1.2l0.6,0.4c0.2,0.1,0.3,0.2,0.3,0.4C25.5,63.3,25.4,63.5,25.3,63.7 M30.7,64.2
				c-0.8-0.3-1.5-0.2-2.2,0.1c-0.6,0.4-1.1,1-1.4,1.9c-0.3,0.9-0.3,1.7-0.1,2.3c0.3,0.6,0.8,1.1,1.6,1.3c0.8,0.3,1.5,0.2,2.2-0.2
				c0.7-0.4,1.2-1,1.5-1.9c0.3-0.9,0.3-1.6,0-2.3C32,64.9,31.5,64.4,30.7,64.2 M30.9,67.4c-0.2,0.7-0.5,1.1-0.8,1.4
				C29.7,69,29.4,69,29,68.9c-0.4-0.1-0.6-0.4-0.7-0.8c-0.1-0.4,0-0.9,0.2-1.5c0.2-0.7,0.5-1.1,0.8-1.3c0.3-0.2,0.7-0.3,1.1-0.1
				c0.4,0.1,0.6,0.4,0.7,0.7C31.2,66.3,31.1,66.8,30.9,67.4 M37.5,69.4c-0.1-0.2-0.2-0.4-0.3-0.6c0.7-0.2,1-0.7,1.1-1.5
				c0.1-0.6-0.1-1-0.4-1.3c-0.3-0.3-0.9-0.5-1.6-0.6l-0.6-0.1l-1.9-0.1L33.7,66l0.6,0.3l-0.4,3.9l-0.6,0.1l-0.1,0.7l2.5,0.2l0.1-0.7
				l-0.6-0.3l0.1-1.4l0.3,0c0.2,0,0.4,0.1,0.4,0.2c0.1,0.1,0.2,0.3,0.3,0.7l0.5,1.6l1.5,0.1l0.1-0.7L38,70.6L37.5,69.4z M37,67.4
				c0,0.3-0.1,0.5-0.3,0.6c-0.2,0.1-0.5,0.2-0.8,0.2l-0.5,0l0.2-1.7l0.7,0.1c0.3,0,0.4,0.1,0.6,0.3C37,66.9,37.1,67.1,37,67.4
				 M45.2,69.9l-2.4-4.7l-1.3,0.2l-1.1,5.1l-0.6,0.3l0.1,0.7l2.5-0.3l-0.1-0.7l-0.7-0.1l0.1-0.6l1.8-0.3l0.3,0.6l-0.6,0.3l0.1,0.7
				l2.6-0.4L45.8,70L45.2,69.9z M41.9,68.9l0.4-2l0.9,1.9L41.9,68.9z M49.8,68.4l-1.4-3.7l0.7-0.3l0.5,0.7l0.7-0.3l-0.6-1.7
				l-4.5,1.7l0.6,1.6l0.7-0.3l-0.1-0.8l0.7-0.3l1.4,3.7L48,69.3l0.3,0.7l2.5-0.9l-0.3-0.7L49.8,68.4z M54.5,61
				c-0.7-0.2-1.3-0.1-2,0.4c-0.7,0.5-1.1,1.1-1.2,1.8c-0.1,0.7,0.1,1.5,0.6,2.3c0.5,0.8,1.1,1.3,1.8,1.5c0.6,0.2,1.3,0.1,2-0.4
				c0.7-0.5,1.1-1.1,1.2-1.8c0.1-0.8-0.1-1.5-0.6-2.3C55.7,61.6,55.1,61.2,54.5,61 M55.1,65.7c-0.3,0.2-0.7,0.3-1,0.1
				c-0.3-0.2-0.7-0.5-1.1-1.1c-0.4-0.6-0.6-1.1-0.6-1.5c0-0.4,0.2-0.7,0.6-0.9c0.4-0.2,0.7-0.3,1.1-0.1c0.3,0.1,0.7,0.5,1.1,1.1
				c0.4,0.6,0.6,1.1,0.6,1.5C55.6,65.1,55.4,65.4,55.1,65.7 M62,59.6l-1.2-0.4c-0.2-0.1-0.4-0.1-0.6-0.1c0.2-0.7,0-1.3-0.5-1.8
				c-0.4-0.4-0.8-0.5-1.3-0.5c-0.5,0.1-0.9,0.4-1.4,0.9l-0.4,0.5l-1.3,1.4l0.5,0.5l0.6-0.3l2.8,2.7l-0.3,0.6l0.5,0.5l1.7-1.8
				l-0.5-0.5l-0.6,0.3l-1-0.9l0.2-0.2c0.1-0.2,0.3-0.2,0.4-0.2c0.1,0,0.4,0.1,0.7,0.2L62,61l1.1-1.1l-0.5-0.5L62,59.6z M58.8,59.7
				l-0.3,0.3l-1.2-1.2l0.5-0.5c0.2-0.2,0.4-0.3,0.6-0.3c0.2,0,0.4,0.1,0.6,0.3c0.2,0.2,0.3,0.4,0.3,0.6C59.1,59.3,59,59.5,58.8,59.7
				 M65.3,55l-0.5,0.4l-0.9-0.6l-1.7-2.8l0.1-0.6l-0.6-0.4L60.5,53l0.6,0.4l0.4-0.3l1.1,1.7l-2-0.2l0.1-0.5l-0.6-0.4l-1.2,2l0.6,0.4
				l0.5-0.3l3.2,0.2l0.9,0.6L64,57.2l0.6,0.4l1.3-2.2L65.3,55z"/>
			<polygon class="st4" points="14.2,44.2 11.4,44.2 10.7,41.7 9.8,44.2 7,44.2 9.2,45.8 8.3,48.4 10.7,46.9 12.7,48.4 11.9,45.9 
							"/>
			<polygon class="st4" points="70.3,44.2 67.5,44.2 66.8,41.7 65.9,44.2 63.1,44.2 65.3,45.8 64.4,48.4 66.8,46.9 68.8,48.4 
				68,45.9 			"/>
			<path class="st4" d="M40.1,41.6l-3.8-6.2h-2.1v9.7H36v-6.5l4.1,6.5H42v-9.7h-1.9V41.6z M51,35.4h-2.3l-3.4,9.7h2.1l0.7-2h3.6
				l0.6,2h2.2L51,35.4z M48.6,41.4l1.2-3.8h0l1.2,3.8H48.6z"/>
			<path class="st2" d="M28.2,35.6c0,0,0.5,1-0.9,1.8c0,0-0.4,0.3-0.8,0.4c0,0-1.2,0.6-1.2,0.8c0,0,0,0.3,1.2,0.7
				c0,0-0.8,0.4-0.9,0.5c0,0-0.5-0.2-0.8-0.5v-1.2c0,0,0.1-0.6,1.2-1.1c0,0,1.9-0.9,2.1-1.5c0,0-0.1-0.2-1.2-0.2h-4V45h4.4
				c0,0,3.7,0,3.8-4.9C30.9,40.1,31,36.6,28.2,35.6 M28.2,41.9c-0.1,0.8-2.1,1.6-2.1,1.6c-1.2,0.5-1.4,1.3-1.4,1.3h0v-1.2
				c0.1-0.4,0.8-0.8,0.8-0.8c0.2-0.1,0.9-0.5,0.9-0.5c1-0.5,1.1-0.7,1.1-0.7c0-0.2-1.1-0.8-1.1-0.8l0.9-0.5
				C28.5,40.8,28.2,41.9,28.2,41.9 M27.3,40.2c0,0-2.1,1-2.1,1.3c0,0,0.3,0.5,1.2,0.7c0,0-0.8,0.5-0.9,0.5c0,0-0.6-0.2-0.8-0.5V41
				c0,0,0.1-0.6,0.9-0.9c0,0,2-1,2-1.2c0,0,0-0.3-1.1-0.8c0,0,0.8-0.4,0.8-0.5c0,0,1,0.4,1,1.2C28.3,38.8,28.4,39.5,27.3,40.2"/>
		</g>
	</g>
</g>
<g>
	<g>
		<path class="st16" d="M80.5,28.8v-10H84c1.2,0,2.2,0.4,3,1.2s1.2,1.8,1.2,3v1.6c0,1.2-0.4,2.2-1.2,3s-1.8,1.2-3,1.2H80.5z
			 M82.5,20.4v6.9H84c0.7,0,1.2-0.2,1.6-0.7s0.6-1.1,0.6-1.9V23c0-0.8-0.2-1.4-0.6-1.9s-0.9-0.7-1.6-0.7H82.5z"/>
		<path class="st16" d="M98.5,28.8h-2l-4-6.7l0,0v6.7h-2v-10h2l4,6.7l0,0v-6.7h2V28.8z"/>
		<path class="st16" d="M106.4,26.6h-3.2l-0.7,2.1h-2.1l3.4-10h2l3.3,10h-2.1L106.4,26.6z M103.7,25.1h2.2l-1.1-3.5h0L103.7,25.1z"
			/>
		<path class="st16" d="M120.8,24.5h-4v4.2h-1.7v-10h6.4v1.3h-4.7v3h4V24.5z"/>
		<path class="st16" d="M122.9,25c0-1.1,0.3-2,0.9-2.7c0.6-0.7,1.4-1.1,2.5-1.1c1.1,0,1.9,0.4,2.5,1.1c0.6,0.7,0.9,1.6,0.9,2.7v0.1
			c0,1.1-0.3,2-0.9,2.7c-0.6,0.7-1.4,1-2.5,1c-1.1,0-1.9-0.4-2.5-1.1c-0.6-0.7-0.9-1.6-0.9-2.7V25z M124.6,25.2
			c0,0.7,0.1,1.3,0.4,1.8s0.7,0.7,1.3,0.7c0.6,0,1-0.2,1.3-0.7c0.3-0.5,0.4-1,0.4-1.8V25c0-0.7-0.1-1.3-0.4-1.7
			c-0.3-0.5-0.7-0.7-1.3-0.7c-0.6,0-1,0.2-1.3,0.7c-0.3,0.5-0.4,1-0.4,1.7V25.2z"/>
		<path class="st16" d="M135.6,22.9l-0.7,0c-0.3,0-0.6,0.1-0.8,0.2c-0.2,0.1-0.4,0.3-0.5,0.6v5.1h-1.7v-7.4h1.5l0.1,1.1
			c0.2-0.4,0.4-0.7,0.7-0.9c0.3-0.2,0.6-0.3,1-0.3c0.1,0,0.2,0,0.3,0s0.2,0,0.2,0.1L135.6,22.9z"/>
		<path class="st16" d="M140.5,28.9c-1.1,0-1.9-0.3-2.5-1c-0.6-0.7-0.9-1.6-0.9-2.6V25c0-1.1,0.3-2,0.9-2.7c0.6-0.7,1.4-1.1,2.4-1
			c1,0,1.7,0.3,2.3,0.9s0.8,1.4,0.8,2.5v0.9h-4.6l0,0c0,0.6,0.2,1.1,0.5,1.5s0.8,0.6,1.4,0.6c0.5,0,0.8-0.1,1.2-0.2
			c0.3-0.1,0.6-0.3,0.9-0.5l0.5,1.1c-0.3,0.2-0.7,0.5-1.1,0.6S141.1,28.9,140.5,28.9z M140.3,22.6c-0.4,0-0.8,0.2-1,0.5
			s-0.4,0.7-0.5,1.2l0,0h2.9v-0.1c0-0.5-0.1-0.9-0.3-1.2C141.1,22.7,140.8,22.6,140.3,22.6z"/>
		<path class="st16" d="M146.9,21.4l0.1,1.1c0.2-0.4,0.5-0.7,0.9-0.9c0.4-0.2,0.8-0.3,1.2-0.3c0.8,0,1.4,0.2,1.8,0.7
			c0.4,0.5,0.6,1.2,0.6,2.2v4.6h-1.7v-4.6c0-0.6-0.1-1-0.3-1.2s-0.6-0.4-1-0.4c-0.4,0-0.7,0.1-0.9,0.2s-0.5,0.3-0.6,0.6v5.4h-1.7
			v-7.4H146.9z"/>
		<path class="st16" d="M158.2,26.8c0-0.3-0.1-0.5-0.3-0.6c-0.2-0.2-0.6-0.3-1.2-0.4c-0.9-0.2-1.5-0.4-2-0.8s-0.7-0.8-0.7-1.4
			c0-0.6,0.3-1.1,0.8-1.6s1.2-0.7,2.1-0.7c0.9,0,1.6,0.2,2.1,0.7c0.5,0.5,0.8,1,0.8,1.6l0,0h-1.6c0-0.3-0.1-0.6-0.4-0.8
			s-0.6-0.3-1-0.3c-0.4,0-0.7,0.1-0.9,0.3s-0.3,0.4-0.3,0.7c0,0.3,0.1,0.5,0.3,0.6s0.6,0.3,1.2,0.4c0.9,0.2,1.6,0.5,2.1,0.8
			s0.7,0.8,0.7,1.4c0,0.7-0.3,1.2-0.8,1.6c-0.5,0.4-1.3,0.6-2.2,0.6c-1,0-1.7-0.2-2.3-0.7s-0.8-1.1-0.8-1.7l0,0h1.5
			c0,0.4,0.2,0.7,0.5,0.9s0.6,0.3,1.1,0.3c0.4,0,0.8-0.1,1-0.3C158.1,27.3,158.2,27,158.2,26.8z"/>
		<path class="st16" d="M163.8,19.6h-1.7v-1.5h1.7V19.6z M163.8,28.8h-1.7v-7.4h1.7V28.8z"/>
		<path class="st16" d="M169.3,27.6c0.4,0,0.7-0.1,1-0.4c0.3-0.2,0.4-0.5,0.4-0.9h1.5l0,0c0,0.7-0.3,1.3-0.8,1.8
			c-0.6,0.5-1.3,0.8-2,0.8c-1.1,0-1.9-0.4-2.5-1.1s-0.9-1.6-0.9-2.7V25c0-1.1,0.3-2,0.9-2.7s1.4-1.1,2.5-1.1c0.9,0,1.6,0.3,2.1,0.8
			s0.8,1.2,0.8,2l0,0h-1.5c0-0.4-0.1-0.7-0.4-1s-0.6-0.4-1-0.4c-0.6,0-1,0.2-1.3,0.7s-0.4,1-0.4,1.7v0.2c0,0.7,0.1,1.3,0.4,1.7
			C168.3,27.4,168.7,27.6,169.3,27.6z"/>
		<path class="st16" d="M178.5,26.8c0-0.3-0.1-0.5-0.3-0.6c-0.2-0.2-0.6-0.3-1.2-0.4c-0.9-0.2-1.5-0.4-2-0.8s-0.7-0.8-0.7-1.4
			c0-0.6,0.3-1.1,0.8-1.6s1.2-0.7,2.1-0.7c0.9,0,1.6,0.2,2.1,0.7c0.5,0.5,0.8,1,0.8,1.6l0,0h-1.6c0-0.3-0.1-0.6-0.4-0.8
			s-0.6-0.3-1-0.3c-0.4,0-0.7,0.1-0.9,0.3s-0.3,0.4-0.3,0.7c0,0.3,0.1,0.5,0.3,0.6s0.6,0.3,1.2,0.4c0.9,0.2,1.6,0.5,2.1,0.8
			s0.7,0.8,0.7,1.4c0,0.7-0.3,1.2-0.8,1.6c-0.5,0.4-1.3,0.6-2.2,0.6c-1,0-1.7-0.2-2.3-0.7s-0.8-1.1-0.8-1.7l0,0h1.5
			c0,0.4,0.2,0.7,0.5,0.9s0.6,0.3,1.1,0.3c0.4,0,0.8-0.1,1-0.3C178.3,27.3,178.5,27,178.5,26.8z"/>
		<path class="st16" d="M82.3,44.3H87v1.3h-6.3v-10h1.7V44.3z"/>
		<path class="st16" d="M93.4,45.6c-0.1-0.2-0.1-0.4-0.1-0.5c0-0.2-0.1-0.4-0.1-0.5c-0.2,0.3-0.5,0.6-0.9,0.9
			c-0.4,0.2-0.8,0.4-1.3,0.4c-0.8,0-1.4-0.2-1.8-0.6s-0.6-0.9-0.6-1.6c0-0.7,0.3-1.3,0.8-1.7c0.6-0.4,1.4-0.6,2.4-0.6h1.3v-0.6
			c0-0.4-0.1-0.7-0.3-0.9c-0.2-0.2-0.6-0.3-1-0.3c-0.4,0-0.7,0.1-0.9,0.3c-0.2,0.2-0.3,0.4-0.3,0.7l-1.6,0l0,0
			c0-0.6,0.2-1.1,0.8-1.6c0.6-0.5,1.3-0.7,2.2-0.7c0.9,0,1.6,0.2,2.1,0.7s0.8,1.1,0.8,1.9v3.3c0,0.3,0,0.6,0.1,0.9
			c0,0.3,0.1,0.6,0.2,0.8H93.4z M91.4,44.4c0.4,0,0.8-0.1,1.1-0.3c0.3-0.2,0.6-0.4,0.7-0.7v-1.1h-1.3c-0.5,0-0.9,0.1-1.1,0.4
			c-0.3,0.2-0.4,0.5-0.4,0.8c0,0.3,0.1,0.5,0.3,0.7C90.7,44.3,91,44.4,91.4,44.4z"/>
		<path class="st16" d="M103.7,42.1c0,1.1-0.3,1.9-0.8,2.6c-0.5,0.7-1.2,1-2.1,1c-0.5,0-0.9-0.1-1.2-0.3S99,45,98.8,44.6l-0.2,1
			h-1.3V34.9h1.7V39c0.2-0.3,0.5-0.6,0.8-0.7s0.7-0.3,1.1-0.3c0.9,0,1.6,0.4,2.1,1.1c0.5,0.7,0.8,1.7,0.8,2.9V42.1z M102.1,42
			c0-0.8-0.1-1.4-0.4-1.9s-0.7-0.7-1.3-0.7c-0.4,0-0.7,0.1-0.9,0.2c-0.2,0.2-0.4,0.4-0.6,0.7v3.1c0.1,0.3,0.3,0.5,0.6,0.7
			c0.3,0.2,0.6,0.2,0.9,0.2c0.6,0,1-0.2,1.3-0.6c0.3-0.4,0.4-0.9,0.4-1.6V42z"/>
		<path class="st16" d="M105.6,41.8c0-1.1,0.3-2,0.9-2.7c0.6-0.7,1.4-1.1,2.5-1.1c1.1,0,1.9,0.4,2.5,1.1c0.6,0.7,0.9,1.6,0.9,2.7V42
			c0,1.1-0.3,2-0.9,2.7c-0.6,0.7-1.4,1-2.5,1c-1.1,0-1.9-0.4-2.5-1.1c-0.6-0.7-0.9-1.6-0.9-2.7V41.8z M107.2,42
			c0,0.7,0.1,1.3,0.4,1.8s0.7,0.7,1.3,0.7c0.6,0,1-0.2,1.3-0.7c0.3-0.5,0.4-1,0.4-1.8v-0.1c0-0.7-0.1-1.3-0.4-1.7
			c-0.3-0.5-0.7-0.7-1.3-0.7c-0.6,0-1,0.2-1.3,0.7c-0.3,0.5-0.4,1-0.4,1.7V42z"/>
		<path class="st16" d="M118.2,39.7l-0.7,0c-0.3,0-0.6,0.1-0.8,0.2c-0.2,0.1-0.4,0.3-0.5,0.6v5.1h-1.7v-7.4h1.5l0.1,1.1
			c0.2-0.4,0.4-0.7,0.7-0.9c0.3-0.2,0.6-0.3,1-0.3c0.1,0,0.2,0,0.3,0c0.1,0,0.2,0,0.2,0.1L118.2,39.7z"/>
		<path class="st16" d="M124.6,45.6c-0.1-0.2-0.1-0.4-0.1-0.5c0-0.2-0.1-0.4-0.1-0.5c-0.2,0.3-0.5,0.6-0.9,0.9
			c-0.4,0.2-0.8,0.4-1.3,0.4c-0.8,0-1.4-0.2-1.8-0.6c-0.4-0.4-0.6-0.9-0.6-1.6c0-0.7,0.3-1.3,0.8-1.7c0.6-0.4,1.4-0.6,2.4-0.6h1.3
			v-0.6c0-0.4-0.1-0.7-0.3-0.9c-0.2-0.2-0.6-0.3-1-0.3c-0.4,0-0.7,0.1-0.9,0.3c-0.2,0.2-0.3,0.4-0.3,0.7l-1.6,0l0,0
			c0-0.6,0.2-1.1,0.8-1.6c0.6-0.5,1.3-0.7,2.2-0.7c0.9,0,1.6,0.2,2.1,0.7s0.8,1.1,0.8,1.9v3.3c0,0.3,0,0.6,0.1,0.9
			c0,0.3,0.1,0.6,0.2,0.8H124.6z M122.5,44.4c0.4,0,0.8-0.1,1.1-0.3c0.3-0.2,0.6-0.4,0.7-0.7v-1.1H123c-0.5,0-0.9,0.1-1.1,0.4
			c-0.3,0.2-0.4,0.5-0.4,0.8c0,0.3,0.1,0.5,0.3,0.7C121.9,44.3,122.2,44.4,122.5,44.4z"/>
		<path class="st16" d="M130.6,36.4v1.8h1.3v1.2h-1.3v4.1c0,0.3,0.1,0.5,0.2,0.7c0.1,0.1,0.3,0.2,0.5,0.2c0.1,0,0.2,0,0.3,0
			c0.1,0,0.2,0,0.2-0.1l0.2,1.2c-0.1,0.1-0.3,0.1-0.5,0.2c-0.2,0-0.4,0.1-0.6,0.1c-0.6,0-1.1-0.2-1.4-0.5c-0.3-0.4-0.5-0.9-0.5-1.7
			v-4.1h-1.1v-1.2h1.1v-1.8H130.6z"/>
		<path class="st16" d="M133.6,41.8c0-1.1,0.3-2,0.9-2.7c0.6-0.7,1.4-1.1,2.5-1.1c1.1,0,1.9,0.4,2.5,1.1c0.6,0.7,0.9,1.6,0.9,2.7V42
			c0,1.1-0.3,2-0.9,2.7c-0.6,0.7-1.4,1-2.5,1c-1.1,0-1.9-0.4-2.5-1.1c-0.6-0.7-0.9-1.6-0.9-2.7V41.8z M135.3,42
			c0,0.7,0.1,1.3,0.4,1.8s0.7,0.7,1.3,0.7c0.6,0,1-0.2,1.3-0.7c0.3-0.5,0.4-1,0.4-1.8v-0.1c0-0.7-0.1-1.3-0.4-1.7
			c-0.3-0.5-0.7-0.7-1.3-0.7c-0.6,0-1,0.2-1.3,0.7c-0.3,0.5-0.4,1-0.4,1.7V42z"/>
		<path class="st16" d="M146.2,39.7l-0.7,0c-0.3,0-0.6,0.1-0.8,0.2c-0.2,0.1-0.4,0.3-0.5,0.6v5.1h-1.7v-7.4h1.5l0.1,1.1
			c0.2-0.4,0.4-0.7,0.7-0.9c0.3-0.2,0.6-0.3,1-0.3c0.1,0,0.2,0,0.3,0c0.1,0,0.2,0,0.2,0.1L146.2,39.7z"/>
		<path class="st16" d="M150.8,42.6l0.2,0.7h0l1.6-5.2h1.8l-3.1,8.5c-0.2,0.5-0.5,1-0.8,1.3s-0.9,0.5-1.5,0.5c-0.1,0-0.3,0-0.4,0
			c-0.2,0-0.3-0.1-0.5-0.1l0.2-1.3c0.1,0,0.1,0,0.3,0s0.2,0,0.2,0c0.3,0,0.5-0.1,0.7-0.3c0.2-0.2,0.3-0.4,0.4-0.7l0.3-0.7l-2.7-7.3
			h1.8L150.8,42.6z"/>
		<path class="st16" d="M162.1,41.8v3.8h-1.7v-10h3.8c1.1,0,2,0.3,2.6,0.9c0.6,0.6,0.9,1.3,0.9,2.2c0,0.9-0.3,1.7-0.9,2.2
			c-0.6,0.6-1.5,0.8-2.6,0.8H162.1z M162.1,40.5h2.2c0.6,0,1.1-0.2,1.4-0.5s0.5-0.7,0.5-1.3s-0.2-0.9-0.5-1.3
			c-0.3-0.3-0.8-0.5-1.4-0.5h-2.2V40.5z"/>
		<path class="st16" d="M172.6,43.1l0.1,0.6h0l0.1-0.6l1.5-4.9h1.7l-2.6,7.4H172l-2.6-7.4h1.7L172.6,43.1z"/>
		<path class="st16" d="M179.9,36.4v1.8h1.3v1.2h-1.3v4.1c0,0.3,0.1,0.5,0.2,0.7c0.1,0.1,0.3,0.2,0.5,0.2c0.1,0,0.2,0,0.3,0
			c0.1,0,0.2,0,0.2-0.1l0.2,1.2c-0.1,0.1-0.3,0.1-0.5,0.2c-0.2,0-0.4,0.1-0.6,0.1c-0.6,0-1.1-0.2-1.4-0.5c-0.3-0.4-0.5-0.9-0.5-1.7
			v-4.1h-1.1v-1.2h1.1v-1.8H179.9z"/>
		<path class="st16" d="M185.1,45.6h-1.7V44h1.7V45.6z"/>
		<path class="st16" d="M193.9,44.3h4.7v1.3h-6.3v-10h1.7V44.3z"/>
		<path class="st16" d="M202.6,36.4v1.8h1.3v1.2h-1.3v4.1c0,0.3,0.1,0.5,0.2,0.7c0.1,0.1,0.3,0.2,0.5,0.2c0.1,0,0.2,0,0.3,0
			c0.1,0,0.2,0,0.2-0.1l0.2,1.2c-0.1,0.1-0.3,0.1-0.5,0.2c-0.2,0-0.4,0.1-0.6,0.1c-0.6,0-1.1-0.2-1.4-0.5c-0.3-0.4-0.5-0.9-0.5-1.7
			v-4.1h-1.1v-1.2h1.1v-1.8H202.6z"/>
		<path class="st16" d="M205.7,42c0-1.2,0.3-2.1,0.8-2.9c0.5-0.7,1.2-1.1,2.1-1.1c0.4,0,0.8,0.1,1.1,0.2c0.3,0.2,0.6,0.4,0.8,0.7
			v-4.1h1.7v10.7h-1.3l-0.2-0.9c-0.2,0.4-0.5,0.6-0.9,0.8c-0.3,0.2-0.7,0.3-1.2,0.3c-0.9,0-1.6-0.3-2.1-1s-0.8-1.5-0.8-2.6V42z
			 M207.4,42.1c0,0.7,0.1,1.2,0.4,1.6c0.3,0.4,0.7,0.6,1.2,0.6c0.4,0,0.6-0.1,0.9-0.2c0.2-0.2,0.4-0.4,0.6-0.6v-3.2
			c-0.2-0.3-0.4-0.5-0.6-0.6c-0.2-0.2-0.5-0.2-0.9-0.2c-0.6,0-1,0.2-1.3,0.7c-0.3,0.5-0.4,1.1-0.4,1.9V42.1z"/>
		<path class="st16" d="M216.5,45.6h-1.7V44h1.7V45.6z"/>
	</g>
	<g>
		<path class="st16" d="M82.6,61.8h-1.3v-6.4h1.3V61.8z"/>
		<path class="st16" d="M87.6,60.1c0-0.2-0.1-0.4-0.3-0.6c-0.2-0.1-0.5-0.3-0.9-0.4c-0.7-0.2-1.3-0.5-1.7-0.8
			c-0.4-0.3-0.6-0.7-0.6-1.2c0-0.5,0.2-1,0.6-1.3c0.4-0.3,1-0.5,1.6-0.5c0.7,0,1.3,0.2,1.7,0.5c0.4,0.4,0.6,0.8,0.6,1.4l0,0h-1.2
			c0-0.3-0.1-0.6-0.3-0.7c-0.2-0.2-0.5-0.3-0.8-0.3c-0.3,0-0.6,0.1-0.7,0.2s-0.3,0.3-0.3,0.6c0,0.2,0.1,0.4,0.3,0.5s0.5,0.3,1,0.4
			c0.7,0.2,1.2,0.5,1.6,0.8c0.4,0.3,0.6,0.7,0.6,1.3c0,0.5-0.2,1-0.6,1.3s-1,0.5-1.7,0.5c-0.7,0-1.3-0.2-1.8-0.5
			c-0.5-0.3-0.7-0.9-0.7-1.5l0,0h1.2c0,0.4,0.1,0.7,0.3,0.8c0.2,0.2,0.5,0.3,0.9,0.3c0.3,0,0.6-0.1,0.8-0.2
			C87.6,60.5,87.6,60.4,87.6,60.1z"/>
		<path class="st16" d="M95.5,59.2c0,0.8-0.2,1.4-0.7,1.9c-0.5,0.5-1.1,0.8-1.9,0.8c-0.8,0-1.4-0.3-1.9-0.8
			c-0.5-0.5-0.7-1.2-0.7-1.9V58c0-0.8,0.2-1.4,0.7-1.9c0.5-0.5,1.1-0.8,1.9-0.8c0.8,0,1.4,0.3,1.9,0.8c0.5,0.5,0.7,1.2,0.7,1.9V59.2
			z M94.2,58c0-0.5-0.1-0.9-0.4-1.2s-0.6-0.5-1-0.5c-0.4,0-0.8,0.2-1,0.5c-0.2,0.3-0.4,0.7-0.4,1.2v1.2c0,0.5,0.1,0.9,0.4,1.2
			c0.2,0.3,0.6,0.5,1,0.5c0.4,0,0.8-0.2,1-0.5c0.2-0.3,0.4-0.7,0.4-1.2V58z"/>
		<path class="st16" d="M101.4,60.9c0.3,0,0.6-0.1,0.8-0.4c0.2-0.2,0.3-0.6,0.3-1v-0.4c-0.1,0.2-0.3,0.3-0.5,0.4s-0.4,0.1-0.6,0.1
			c-0.6,0-1.1-0.2-1.4-0.6c-0.3-0.4-0.5-0.9-0.5-1.6c0-0.6,0.2-1.2,0.6-1.6s0.9-0.6,1.5-0.6c0.6,0,1.2,0.2,1.6,0.7s0.6,1,0.6,1.8
			v1.7c0,0.7-0.2,1.3-0.7,1.8c-0.4,0.4-1,0.7-1.7,0.7c-0.2,0-0.5,0-0.7-0.1c-0.2,0-0.5-0.1-0.7-0.2l0.2-0.9c0.2,0.1,0.4,0.1,0.5,0.2
			S101.2,60.9,101.4,60.9z M101.6,58.7c0.2,0,0.4,0,0.5-0.1s0.3-0.2,0.4-0.3v-0.7c0-0.4-0.1-0.7-0.2-0.9c-0.2-0.2-0.4-0.3-0.7-0.3
			c-0.3,0-0.5,0.1-0.6,0.4s-0.2,0.5-0.2,0.9c0,0.4,0.1,0.7,0.2,0.9S101.3,58.7,101.6,58.7z"/>
		<path class="st16" d="M109.4,59.5c0,0.8-0.2,1.3-0.6,1.8c-0.4,0.4-0.9,0.6-1.6,0.6c-0.7,0-1.2-0.2-1.6-0.6s-0.6-1-0.6-1.8v-1.8
			c0-0.7,0.2-1.3,0.6-1.8c0.4-0.4,0.9-0.6,1.6-0.6c0.7,0,1.2,0.2,1.6,0.6c0.4,0.4,0.6,1,0.6,1.8V59.5z M108.1,57.6
			c0-0.4-0.1-0.7-0.2-1c-0.2-0.2-0.4-0.3-0.7-0.3c-0.3,0-0.5,0.1-0.7,0.3c-0.2,0.2-0.2,0.5-0.2,1v2c0,0.4,0.1,0.7,0.2,1
			c0.2,0.2,0.4,0.3,0.7,0.3c0.3,0,0.5-0.1,0.6-0.3c0.2-0.2,0.2-0.5,0.2-1V57.6z"/>
		<path class="st16" d="M115,59.5c0,0.8-0.2,1.3-0.6,1.8c-0.4,0.4-0.9,0.6-1.6,0.6c-0.7,0-1.2-0.2-1.6-0.6s-0.6-1-0.6-1.8v-1.8
			c0-0.7,0.2-1.3,0.6-1.8c0.4-0.4,0.9-0.6,1.6-0.6c0.7,0,1.2,0.2,1.6,0.6c0.4,0.4,0.6,1,0.6,1.8V59.5z M113.8,57.6
			c0-0.4-0.1-0.7-0.2-1c-0.2-0.2-0.4-0.3-0.7-0.3c-0.3,0-0.5,0.1-0.7,0.3c-0.2,0.2-0.2,0.5-0.2,1v2c0,0.4,0.1,0.7,0.2,1
			c0.2,0.2,0.4,0.3,0.7,0.3c0.3,0,0.5-0.1,0.6-0.3c0.2-0.2,0.2-0.5,0.2-1V57.6z"/>
		<path class="st16" d="M119.4,61.8h-1.3v-5.3h-1.3v-1l2.6-0.2V61.8z"/>
		<path class="st16" d="M126.1,57.9h-1.3v-1.1h1.3V57.9z M126.1,61.8h-1.3v-1.1h1.3V61.8z"/>
		<path class="st16" d="M134.7,61.8h-4.3v-0.8l2-2.2c0.3-0.3,0.5-0.6,0.6-0.9c0.1-0.2,0.2-0.5,0.2-0.7c0-0.3-0.1-0.5-0.2-0.6
			c-0.1-0.2-0.3-0.2-0.6-0.2c-0.3,0-0.5,0.1-0.6,0.3c-0.2,0.2-0.2,0.5-0.2,0.8h-1.2l0,0c0-0.6,0.2-1,0.6-1.4s0.9-0.6,1.6-0.6
			s1.2,0.2,1.5,0.5s0.5,0.8,0.5,1.4c0,0.4-0.1,0.7-0.3,1.1c-0.2,0.3-0.6,0.8-1.1,1.3l-1.1,1.3l0,0h2.6V61.8z"/>
		<path class="st16" d="M140.3,59.5c0,0.8-0.2,1.3-0.6,1.8c-0.4,0.4-0.9,0.6-1.6,0.6c-0.7,0-1.2-0.2-1.6-0.6s-0.6-1-0.6-1.8v-1.8
			c0-0.7,0.2-1.3,0.6-1.8c0.4-0.4,0.9-0.6,1.6-0.6c0.7,0,1.2,0.2,1.6,0.6c0.4,0.4,0.6,1,0.6,1.8V59.5z M139,57.6
			c0-0.4-0.1-0.7-0.2-1c-0.2-0.2-0.4-0.3-0.7-0.3c-0.3,0-0.5,0.1-0.7,0.3c-0.2,0.2-0.2,0.5-0.2,1v2c0,0.4,0.1,0.7,0.2,1
			c0.2,0.2,0.4,0.3,0.7,0.3c0.3,0,0.5-0.1,0.6-0.3c0.2-0.2,0.2-0.5,0.2-1V57.6z"/>
		<path class="st16" d="M144.6,61.8h-1.3v-5.3H142v-1l2.6-0.2V61.8z"/>
		<path class="st16" d="M147.4,59l0.4-3.6h3.6v1h-2.5l-0.2,1.5c0.1-0.1,0.3-0.2,0.5-0.2c0.2-0.1,0.4-0.1,0.6-0.1
			c0.6,0,1.1,0.2,1.4,0.6c0.3,0.4,0.5,0.9,0.5,1.6c0,0.6-0.2,1.1-0.5,1.5s-0.9,0.6-1.6,0.6c-0.6,0-1.1-0.2-1.5-0.5
			c-0.4-0.3-0.6-0.7-0.6-1.3l0,0l1.2-0.1c0,0.3,0.1,0.5,0.2,0.6c0.2,0.1,0.4,0.2,0.6,0.2c0.3,0,0.5-0.1,0.7-0.3
			c0.1-0.2,0.2-0.5,0.2-0.9s-0.1-0.7-0.2-0.9c-0.2-0.2-0.4-0.3-0.7-0.3c-0.2,0-0.4,0-0.6,0.1c-0.1,0.1-0.2,0.2-0.3,0.4L147.4,59z"/>
		<path class="st16" d="M157.5,60.9c0.2,0,0.4-0.1,0.5-0.2c0.1-0.1,0.2-0.3,0.2-0.5h1.2l0,0c0,0.5-0.2,0.9-0.5,1.2
			c-0.4,0.3-0.8,0.5-1.4,0.5c-0.7,0-1.2-0.2-1.6-0.7s-0.6-1-0.6-1.7v-0.1c0-0.7,0.2-1.3,0.6-1.7c0.4-0.5,0.9-0.7,1.6-0.7
			c0.6,0,1,0.2,1.4,0.5s0.5,0.8,0.5,1.3l0,0h-1.2c0-0.2-0.1-0.5-0.2-0.6c-0.1-0.2-0.3-0.2-0.5-0.2c-0.3,0-0.6,0.1-0.7,0.4
			c-0.1,0.3-0.2,0.6-0.2,1v0.1c0,0.4,0.1,0.8,0.2,1C157,60.8,157.2,60.9,157.5,60.9z"/>
		<path class="st16" d="M162.7,61.9c-0.7,0-1.3-0.2-1.7-0.7c-0.4-0.4-0.6-1-0.6-1.7v-0.2c0-0.7,0.2-1.3,0.6-1.7s0.9-0.7,1.6-0.7
			c0.6,0,1.1,0.2,1.5,0.6c0.3,0.4,0.5,0.9,0.5,1.6v0.7h-2.8l0,0c0,0.3,0.1,0.6,0.3,0.8c0.2,0.2,0.4,0.3,0.8,0.3c0.3,0,0.5,0,0.7-0.1
			c0.2-0.1,0.4-0.1,0.6-0.3l0.3,0.8c-0.2,0.2-0.4,0.3-0.8,0.4C163.4,61.8,163.1,61.9,162.7,61.9z M162.6,57.9
			c-0.3,0-0.5,0.1-0.6,0.3c-0.1,0.2-0.2,0.4-0.3,0.7l0,0h1.6v-0.1c0-0.3-0.1-0.5-0.2-0.7S162.9,57.9,162.6,57.9z"/>
		<path class="st16" d="M168.3,58.1l-0.5,0c-0.2,0-0.3,0-0.5,0.1c-0.1,0.1-0.2,0.2-0.3,0.3v3.2h-1.3V57h1.2l0.1,0.7
			c0.1-0.2,0.3-0.4,0.4-0.6c0.2-0.1,0.4-0.2,0.6-0.2c0.1,0,0.1,0,0.2,0c0.1,0,0.1,0,0.2,0L168.3,58.1z"/>
		<path class="st16" d="M171,55.9V57h0.8v0.9H171v2.4c0,0.2,0,0.3,0.1,0.4c0.1,0.1,0.2,0.1,0.3,0.1c0.1,0,0.1,0,0.2,0
			c0,0,0.1,0,0.2,0l0.1,0.9c-0.1,0-0.3,0.1-0.4,0.1c-0.1,0-0.3,0-0.4,0c-0.4,0-0.8-0.1-1-0.4c-0.2-0.2-0.4-0.6-0.4-1.2v-2.4H169V57
			h0.7v-1.2H171z"/>
		<path class="st16" d="M174.4,55.9h-1.3v-1h1.3V55.9z M174.4,61.8h-1.3V57h1.3V61.8z"/>
		<path class="st16" d="M176.2,61.8v-3.9h-0.7V57h0.7v-0.3c0-0.6,0.2-1.1,0.5-1.4c0.4-0.3,0.9-0.5,1.5-0.5c0.2,0,0.5,0,0.7,0.1
			c0.2,0,0.5,0.1,0.8,0.2l-0.2,1c-0.2-0.1-0.4-0.1-0.6-0.1c-0.2,0-0.4-0.1-0.6-0.1c-0.3,0-0.5,0.1-0.7,0.2c-0.1,0.1-0.2,0.3-0.2,0.6
			V57h0.9v0.9h-0.9v3.9H176.2z M180.4,61.8h-1.3V57h1.3V61.8z"/>
		<path class="st16" d="M183.9,61.9c-0.7,0-1.3-0.2-1.7-0.7c-0.4-0.4-0.6-1-0.6-1.7v-0.2c0-0.7,0.2-1.3,0.6-1.7s0.9-0.7,1.6-0.7
			c0.6,0,1.1,0.2,1.5,0.6c0.3,0.4,0.5,0.9,0.5,1.6v0.7H183l0,0c0,0.3,0.1,0.6,0.3,0.8c0.2,0.2,0.4,0.3,0.8,0.3c0.3,0,0.5,0,0.7-0.1
			c0.2-0.1,0.4-0.1,0.6-0.3l0.3,0.8c-0.2,0.2-0.4,0.3-0.8,0.4C184.7,61.8,184.3,61.9,183.9,61.9z M183.8,57.9
			c-0.3,0-0.5,0.1-0.6,0.3c-0.1,0.2-0.2,0.4-0.3,0.7l0,0h1.6v-0.1c0-0.3-0.1-0.5-0.2-0.7S184.1,57.9,183.8,57.9z"/>
		<path class="st16" d="M186.8,59.4c0-0.8,0.2-1.4,0.5-1.8c0.3-0.5,0.8-0.7,1.4-0.7c0.2,0,0.5,0.1,0.6,0.2c0.2,0.1,0.4,0.3,0.5,0.4
			v-2.6h1.3v6.9H190l-0.1-0.6c-0.1,0.2-0.3,0.4-0.5,0.5c-0.2,0.1-0.4,0.2-0.7,0.2c-0.6,0-1-0.2-1.4-0.6
			C187,60.8,186.8,60.2,186.8,59.4L186.8,59.4z M188.1,59.5c0,0.4,0.1,0.7,0.2,1c0.1,0.2,0.4,0.4,0.7,0.4c0.2,0,0.3,0,0.5-0.1
			c0.1-0.1,0.3-0.2,0.3-0.3v-2c-0.1-0.1-0.2-0.3-0.3-0.3c-0.1-0.1-0.3-0.1-0.5-0.1c-0.3,0-0.5,0.1-0.7,0.4
			C188.2,58.6,188.1,59,188.1,59.5L188.1,59.5z"/>
	</g>
</g>
</svg>
